<?xml version="1.0" encoding="utf-8"?>
<!-- Generator: Adobe Illustrator 15.1.0, SVG Export Plug-In . SVG Version: 6.00 Build 0)  -->
<!DOCTYPE svg PUBLIC "-//W3C//DTD SVG 1.1//EN" "http://www.w3.org/Graphics/SVG/1.1/DTD/svg11.dtd">
<svg version="1.1" id="Layer_1" xmlns="http://www.w3.org/2000/svg" xmlns:xlink="http://www.w3.org/1999/xlink" x="0px" y="0px"
	 width="166.598px" height="33.729px" viewBox="0 0 166.598 33.729" enable-background="new 0 0 166.598 33.729"
	 xml:space="preserve">
<path fill="#060347" d="M20.465,7.49c-0.223,0.356-0.458,0.624-0.703,0.803c-0.246,0.179-0.561,0.269-0.947,0.269
	c-0.343,0-0.711-0.109-1.104-0.324c-0.394-0.216-0.84-0.458-1.338-0.725c-0.499-0.268-1.066-0.508-1.706-0.724
	c-0.638-0.217-1.367-0.324-2.184-0.324c-1.412,0-2.463,0.299-3.154,0.903C8.638,7.969,8.293,8.783,8.293,9.81
	c0,0.653,0.208,1.196,0.624,1.627c0.416,0.431,0.962,0.802,1.639,1.114c0.676,0.312,1.449,0.599,2.318,0.859
	c0.87,0.26,1.757,0.548,2.665,0.868c0.906,0.321,1.794,0.695,2.664,1.126c0.869,0.432,1.643,0.981,2.318,1.649
	c0.677,0.669,1.222,1.482,1.639,2.441c0.416,0.958,0.624,2.115,0.624,3.467c0,1.5-0.26,2.905-0.78,4.214
	c-0.521,1.309-1.274,2.447-2.263,3.422c-0.988,0.974-2.207,1.738-3.656,2.297c-1.448,0.557-3.095,0.834-4.938,0.834
	c-1.012,0-2.04-0.104-3.087-0.312c-1.048-0.208-2.063-0.5-3.044-0.879c-0.98-0.38-1.901-0.829-2.763-1.349
	C1.39,30.668,0.639,30.088,0,29.448l2.229-3.521c0.177-0.253,0.411-0.465,0.702-0.636c0.29-0.171,0.606-0.256,0.947-0.256
	c0.446,0,0.896,0.142,1.349,0.425c0.454,0.28,0.966,0.593,1.539,0.936c0.572,0.342,1.229,0.653,1.972,0.936
	c0.744,0.283,1.62,0.423,2.631,0.423c1.367,0,2.43-0.301,3.188-0.902c0.758-0.602,1.137-1.556,1.137-2.863
	c0-0.759-0.207-1.376-0.623-1.852c-0.417-0.475-0.963-0.869-1.639-1.181c-0.676-0.313-1.446-0.588-2.308-0.826
	c-0.862-0.237-1.746-0.501-2.653-0.79c-0.907-0.29-1.79-0.648-2.652-1.071c-0.863-0.424-1.632-0.98-2.308-1.671
	c-0.677-0.691-1.222-1.553-1.638-2.586c-0.417-1.033-0.624-2.308-0.624-3.824c0-1.217,0.245-2.408,0.735-3.566
	C2.475,5.462,3.195,4.43,4.147,3.523c0.95-0.907,2.117-1.631,3.5-2.175c1.381-0.542,2.964-0.813,4.748-0.813
	c0.995,0,1.965,0.079,2.909,0.234c0.944,0.157,1.839,0.387,2.686,0.691c0.847,0.306,1.639,0.669,2.375,1.093
	c0.734,0.424,1.393,0.902,1.972,1.438L20.465,7.49z"/>
<path fill="#060347" d="M46.792,10.255v23.116h-4.28c-0.861,0-1.426-0.384-1.694-1.157l-0.401-1.338
	c-0.446,0.431-0.907,0.821-1.383,1.17c-0.475,0.35-0.984,0.646-1.526,0.892s-1.13,0.438-1.762,0.579
	c-0.632,0.142-1.318,0.212-2.062,0.212c-1.264,0-2.382-0.218-3.355-0.658c-0.973-0.437-1.795-1.049-2.464-1.838
	c-0.668-0.787-1.174-1.716-1.516-2.787c-0.342-1.069-0.513-2.244-0.513-3.521V10.255h6.911v14.668c0,1.145,0.259,2.028,0.78,2.651
	c0.52,0.625,1.285,0.938,2.296,0.938c0.757,0,1.467-0.159,2.129-0.479c0.66-0.32,1.304-0.755,1.928-1.305V10.255H46.792z"/>
<path fill="#060347" d="M57.938,13.821c0.714-1.248,1.534-2.228,2.463-2.942c0.929-0.713,1.996-1.069,3.199-1.069
	c1.04,0,1.888,0.245,2.542,0.735l-0.446,5.082c-0.074,0.327-0.197,0.551-0.367,0.669c-0.171,0.119-0.405,0.18-0.703,0.18
	c-0.119,0-0.274-0.009-0.468-0.022c-0.193-0.017-0.394-0.036-0.602-0.057c-0.208-0.022-0.42-0.044-0.636-0.067
	c-0.215-0.022-0.412-0.033-0.591-0.033c-1.01,0-1.817,0.269-2.418,0.802c-0.603,0.536-1.112,1.278-1.527,2.229v14.044h-6.91V10.255
	h4.102c0.341,0,0.627,0.029,0.858,0.088c0.229,0.061,0.423,0.153,0.579,0.28c0.156,0.126,0.276,0.293,0.357,0.501
	c0.081,0.209,0.152,0.461,0.211,0.759L57.938,13.821z"/>
<path fill="#060347" d="M70.199,33.371V15.003l-1.517-0.312c-0.52-0.119-0.939-0.304-1.258-0.559
	c-0.32-0.253-0.479-0.624-0.479-1.113v-2.72h3.254V8.983c0-1.322,0.212-2.518,0.634-3.589c0.424-1.069,1.034-1.983,1.829-2.741
	c0.794-0.758,1.765-1.345,2.909-1.762c1.146-0.416,2.446-0.624,3.902-0.624c0.564,0,1.084,0.033,1.561,0.101
	c0.475,0.065,0.973,0.174,1.494,0.323l-0.134,3.366c-0.016,0.237-0.074,0.434-0.178,0.591c-0.104,0.155-0.242,0.282-0.412,0.378
	c-0.172,0.097-0.354,0.167-0.546,0.212c-0.194,0.045-0.387,0.067-0.58,0.067c-0.61,0-1.152,0.06-1.628,0.178
	c-0.476,0.12-0.873,0.332-1.192,0.636c-0.321,0.304-0.562,0.706-0.726,1.203c-0.163,0.499-0.245,1.127-0.245,1.885v1.092h5.417
	v4.726h-5.194v18.346H70.199z"/>
<g>
	<path fill="#060347" d="M115.726,12.706c0.892-0.847,1.869-1.525,2.933-2.039c1.062-0.512,2.246-0.77,3.554-0.77
		c1.31,0,2.498,0.269,3.567,0.804c1.07,0.534,1.984,1.296,2.742,2.284s1.341,2.182,1.749,3.579c0.409,1.396,0.613,2.958,0.613,4.682
		c0,1.871-0.237,3.572-0.713,5.104c-0.477,1.531-1.148,2.843-2.018,3.936c-0.869,1.092-1.906,1.939-3.109,2.542
		c-1.204,0.601-2.535,0.901-3.991,0.901c-0.698,0-1.322-0.065-1.873-0.2c-0.549-0.134-1.054-0.321-1.516-0.569
		c-0.46-0.244-0.88-0.537-1.259-0.88c-0.378-0.343-0.747-0.713-1.104-1.114l-0.245,1.16c-0.12,0.476-0.313,0.802-0.579,0.98
		c-0.269,0.177-0.625,0.266-1.07,0.266h-4.593V0h6.912V12.706z M115.726,27.085c0.521,0.567,1.084,0.967,1.694,1.205
		c0.609,0.238,1.227,0.356,1.85,0.356c0.654,0,1.256-0.123,1.806-0.367c0.55-0.245,1.022-0.648,1.416-1.204
		c0.394-0.558,0.702-1.293,0.925-2.207c0.224-0.915,0.335-2.041,0.335-3.377c0-1.161-0.086-2.145-0.257-2.955
		c-0.172-0.81-0.423-1.472-0.758-1.983c-0.335-0.513-0.75-0.885-1.248-1.114c-0.498-0.231-1.067-0.345-1.706-0.345
		c-0.847,0-1.582,0.185-2.208,0.556c-0.623,0.373-1.241,0.915-1.849,1.627V27.085z"/>
	<path fill="#060347" d="M141.339,0v33.371h-6.909V0H141.339z"/>
	<path fill="#060347" d="M151.705,23.05c0.224,1.933,0.811,3.333,1.761,4.203c0.952,0.869,2.179,1.305,3.68,1.305
		c0.802,0,1.493-0.098,2.072-0.29c0.579-0.194,1.096-0.409,1.551-0.646c0.452-0.239,0.868-0.454,1.248-0.647
		c0.378-0.193,0.775-0.29,1.192-0.29c0.55,0,0.965,0.201,1.249,0.603l2.005,2.473c-0.713,0.818-1.482,1.482-2.307,1.997
		c-0.824,0.513-1.673,0.914-2.542,1.202c-0.868,0.291-1.737,0.492-2.608,0.604c-0.869,0.111-1.698,0.166-2.484,0.166
		c-1.62,0-3.14-0.264-4.56-0.791c-1.419-0.526-2.661-1.312-3.722-2.353c-1.064-1.039-1.904-2.332-2.521-3.877
		c-0.616-1.547-0.925-3.346-0.925-5.396c0-1.546,0.263-3.01,0.791-4.392c0.527-1.383,1.285-2.593,2.273-3.634
		c0.988-1.04,2.185-1.865,3.59-2.476c1.403-0.609,2.991-0.914,4.76-0.914c1.529,0,2.931,0.238,4.203,0.714
		c1.27,0.475,2.362,1.167,3.276,2.072c0.913,0.908,1.627,2.02,2.14,3.333c0.512,1.317,0.77,2.807,0.77,4.472
		c0,0.52-0.023,0.942-0.067,1.27s-0.128,0.587-0.245,0.78c-0.119,0.192-0.279,0.326-0.479,0.4c-0.201,0.074-0.458,0.111-0.77,0.111
		H151.705z M160.399,19.038c0-0.551-0.07-1.086-0.211-1.605c-0.142-0.521-0.372-0.984-0.692-1.393
		c-0.319-0.409-0.739-0.739-1.259-0.992s-1.152-0.378-1.896-0.378c-1.307,0-2.334,0.375-3.076,1.125
		c-0.743,0.751-1.232,1.832-1.471,3.243H160.399z"/>
</g>
<polygon fill="#33CCFF" points="77.194,33.729 93.643,27.499 106.188,33.729 106.188,0.064 "/>
</svg>
