<svg width="181" height="36" xmlns="http://www.w3.org/2000/svg"><g fill-rule="nonzero" fill="none"><path d="M21.742 7.924c-.236.379-.485.663-.746.852-.26.19-.596.284-1.006.284-.363 0-.754-.114-1.173-.343-.472-.258-.946-.514-1.42-.769a11.798 11.798 0 0 0-1.812-.77c-.68-.228-1.453-.342-2.322-.342-1.5 0-2.617.32-3.35.958-.735.639-1.102 1.503-1.102 2.591 0 .694.22 1.27.663 1.728.442.457 1.022.852 1.74 1.183.72.331 1.54.635 2.464.911.924.276 1.867.584 2.83.923.967.34 1.912.74 2.83 1.195a9.437 9.437 0 0 1 2.464 1.751c.718.71 1.298 1.574 1.74 2.591.443 1.018.664 2.244.664 3.68 0 1.593-.277 3.084-.83 4.472a10.471 10.471 0 0 1-2.403 3.633c-1.05 1.033-2.345 1.845-3.885 2.437-1.539.592-3.288.887-5.246.887-1.073 0-2.167-.11-3.28-.33a19.499 19.499 0 0 1-3.233-.936 18.754 18.754 0 0 1-2.937-1.431A12.474 12.474 0 0 1 0 31.233l2.368-3.739c.174-.284.419-.513.735-.686.315-.174.655-.26 1.018-.26.474 0 .952.15 1.433.45.482.299 1.026.63 1.634.993.608.363 1.307.694 2.096.994.79.3 1.721.45 2.795.45 1.453 0 2.582-.32 3.387-.959.805-.639 1.208-1.652 1.208-3.04 0-.805-.221-1.46-.663-1.965-.442-.505-1.023-.923-1.741-1.254a16.052 16.052 0 0 0-2.451-.875A73.212 73.212 0 0 1 9 20.502a20.63 20.63 0 0 1-2.818-1.136A8.896 8.896 0 0 1 3.73 17.59c-.718-.734-1.298-1.649-1.74-2.745-.443-1.097-.664-2.45-.664-4.058 0-1.294.26-2.556.782-3.787a9.772 9.772 0 0 1 2.297-3.289c1.01-.962 2.25-1.731 3.719-2.307 1.468-.576 3.15-.864 5.045-.864 1.058 0 2.088.083 3.09.249 1.003.165 1.954.41 2.854.733.9.324 1.741.71 2.523 1.16.781.45 1.48.958 2.096 1.526l-1.99 3.715zm13.293 2.955v15.558c0 1.214.277 2.151.831 2.814.554.662 1.368.993 2.444.993a5.26 5.26 0 0 0 2.266-.497c.704-.331 1.389-.796 2.053-1.395V10.88h7.356v24.519H45.43c-.917 0-1.519-.41-1.803-1.23l-.451-1.418c-.475.457-.965.87-1.471 1.241a9.012 9.012 0 0 1-1.626.946 9.738 9.738 0 0 1-1.863.615 9.932 9.932 0 0 1-2.183.224c-1.345 0-2.535-.232-3.571-.697a7.346 7.346 0 0 1-2.622-1.95c-.712-.836-1.25-1.821-1.614-2.956-.364-1.135-.546-2.38-.546-3.736V10.879h7.356zm20.649 24.518V10.865h4.354c.363 0 .667.032.912.095.244.063.45.161.615.295.165.134.292.312.378.533.087.22.162.489.225.804l.403 2.295c.899-1.388 1.909-2.484 3.029-3.289 1.12-.804 2.343-1.206 3.668-1.206 1.12 0 2.02.268 2.698.804l-.947 5.394c-.063.331-.19.564-.378.698-.19.134-.442.201-.758.201-.268 0-.584-.035-.946-.106a7.342 7.342 0 0 0-1.373-.107c-1.925 0-3.44 1.025-4.544 3.076v15.045h-7.336zm20.668 0v-19.49l-1.613-.332c-.554-.126-1-.323-1.34-.591-.34-.268-.51-.663-.51-1.183v-2.886h3.463V9.52c0-1.403.226-2.673.676-3.808a8.059 8.059 0 0 1 1.946-2.91c.846-.804 1.878-1.427 3.096-1.868C83.288.49 84.672.27 86.222.27c.601 0 1.158.035 1.673.106.514.07 1.047.185 1.601.343l-.142 3.572a1.18 1.18 0 0 1-.202.627c-.116.163-.266.3-.439.402a1.981 1.981 0 0 1-.581.224 2.9 2.9 0 0 1-.629.071c-.648 0-1.226.064-1.732.19s-.93.35-1.27.674c-.34.323-.596.749-.77 1.277-.174.528-.261 1.195-.261 1.999v1.16h5.789v5.014h-5.552v19.467h-7.355zm33.057 0c-.696 0-1.222-.094-1.578-.283-.356-.19-.652-.584-.89-1.183l-.522-1.348c-.616.52-1.21.977-1.78 1.372-.569.394-1.158.73-1.767 1.005a8.748 8.748 0 0 1-1.946.615 12.01 12.01 0 0 1-2.29.201c-1.123 0-2.143-.146-3.06-.437-.918-.292-1.697-.722-2.338-1.29a5.67 5.67 0 0 1-1.483-2.117c-.348-.844-.522-1.818-.522-2.922 0-.867.221-1.758.664-2.673.443-.915 1.21-1.747 2.302-2.496 1.091-.749 2.563-1.376 4.414-1.88 1.85-.505 4.184-.79 7-.852v-1.041c0-1.435-.297-2.472-.89-3.111-.593-.639-1.436-.958-2.527-.958-.87 0-1.582.094-2.136.284a9.618 9.618 0 0 0-1.483.638c-.435.237-.858.45-1.27.64-.41.188-.901.283-1.47.283-.507 0-.938-.122-1.294-.367a2.726 2.726 0 0 1-.842-.91l-1.33-2.295a14.967 14.967 0 0 1 4.948-2.922c1.812-.639 3.754-.958 5.826-.958 1.487 0 2.828.24 4.022.721 1.194.482 2.207 1.152 3.037 2.011.83.86 1.468 1.881 1.91 3.064.444 1.183.665 2.476.665 3.88v15.33h-3.37zm-8.447-4.47c.949 0 1.78-.166 2.491-.497.712-.331 1.432-.868 2.16-1.609v-3.407c-1.472.063-2.682.19-3.63.379-.95.19-1.702.426-2.255.71-.554.284-.937.607-1.151.97a2.29 2.29 0 0 0-.32 1.182c0 .836.229 1.424.688 1.763.459.339 1.13.509 2.017.509zM153.538 0v35.397h-7.327V0h7.327zm16.42 10.5c1.627 0 3.116.252 4.466.757 1.351.504 2.512 1.237 3.484 2.199.971.961 1.73 2.14 2.274 3.535.545 1.395.818 2.975.818 4.74 0 .552-.024 1.001-.071 1.348-.047.347-.134.623-.26.828a.992.992 0 0 1-.51.425c-.213.08-.486.119-.818.119h-14.17c.237 2.049.861 3.534 1.872 4.457 1.011.922 2.314 1.383 3.91 1.383.853 0 1.588-.103 2.204-.308a11.131 11.131 0 0 0 1.647-.685c.481-.253.924-.481 1.327-.686a2.76 2.76 0 0 1 1.267-.307c.585 0 1.027.212 1.327.638l2.133 2.625c-.758.867-1.576 1.572-2.453 2.116-.876.544-1.777.97-2.701 1.277-.924.307-1.848.52-2.772.638-.925.118-1.805.177-2.643.177-1.721 0-3.337-.28-4.845-.839a11.138 11.138 0 0 1-3.957-2.495c-1.13-1.103-2.023-2.474-2.678-4.114-.656-1.64-.984-3.546-.984-5.722 0-1.64.28-3.192.842-4.658a11.468 11.468 0 0 1 2.417-3.854c1.05-1.103 2.322-1.978 3.815-2.624 1.493-.647 3.179-.97 5.059-.97zm.142 5.06c-1.406 0-2.504.398-3.294 1.194-.79.796-1.31 1.943-1.564 3.44h9.17c0-.583-.074-1.15-.225-1.702a4.123 4.123 0 0 0-.734-1.478 3.736 3.736 0 0 0-1.339-1.052c-.553-.268-1.224-.402-2.014-.402zM128.247 0v15.05l-6.916 8.034 6.916 8.234v4.08h-7.327V0z" fill="#000"/><path d="M135.325 10.392a7.68 7.68 0 0 1 3.542.831c1.086.554 2.023 1.365 2.81 2.434.787 1.069 1.404 2.379 1.853 3.93.449 1.551.673 3.316.673 5.295 0 1.852-.256 3.562-.767 5.13-.512 1.567-1.228 2.928-2.15 4.084a9.909 9.909 0 0 1-3.305 2.707c-1.283.649-2.703.973-4.262.973a8.112 8.112 0 0 1-1.948-.213 6.636 6.636 0 0 1-2.904-1.544l-.19-.17a149.26 149.26 0 0 0-1.156-1.02l-5.811-8.502c-.401-.584-.666-.968-.793-1.15l-1.91 2.757-.316.276a15.24 15.24 0 0 0-.08.072 1.974 1.974 0 0 1-.858.45c-.17.042-.362.062-.576.062-.46 0-.88-.094-1.258-.284a2.92 2.92 0 0 1-.976-.79 3.753 3.753 0 0 1-.635-1.191 4.744 4.744 0 0 1-.226-1.497c0-.577.066-1.092.198-1.544.133-.453.315-.835.548-1.147a2.35 2.35 0 0 1 .83-.71 2.29 2.29 0 0 1 1.045-.243c.46 0 .861.08 1.203.24.34.157.65.372.917.633l.016.018c.075.086.326.412.632.813l1.425 1.878.111-.145c1.088-1.426 6.76-9.065 7.14-9.441a11.168 11.168 0 0 1 3.105-2.173c1.157-.546 2.515-.82 4.073-.82zm-2.55 5.533c-.535 0-1.02.051-1.452.154a5.361 5.361 0 0 0-1.111.393l-.093.046c-.37.19-8.37 4.825-8.37 6.566 0 1.741 7.547 6.665 8.193 6.91a5.666 5.666 0 0 0 2.03.368c.677 0 1.299-.134 1.866-.403.566-.27 1.058-.7 1.475-1.295.417-.593.744-1.365.98-2.315s.354-2.105.354-3.467c0-1.298-.094-2.39-.283-3.277-.189-.886-.453-1.603-.791-2.149s-.744-.938-1.216-1.175c-.472-.238-1-.356-1.582-.356zm-15.319 5.078c-.172 0-.327.034-.467.103a.904.904 0 0 0-.359.343c-.1.16-.178.369-.234.627a4.624 4.624 0 0 0-.083.956c0 .398.035.735.104 1.012.07.277.167.502.29.675.123.174.268.3.436.378.167.079.35.118.55.118.21 0 .41-.036.6-.108.19-.071 2.42-1.508 2.42-2.016s-2.363-1.86-2.472-1.915a1.584 1.584 0 0 0-.356-.128 1.879 1.879 0 0 0-.429-.045z" fill="#007BFF"/></g></svg>